<mxfile host="app.diagrams.net" modified="2022-01-28T14:32:20.991Z" agent="5.0 (Macintosh; Intel Mac OS X 10_15_7) AppleWebKit/537.36 (KHTML, like Gecko) Chrome/97.0.4692.99 Safari/537.36" etag="-HKh2nqCvhNs5BRkfpVl" version="16.5.0" type="github">
  <diagram id="MlBCAPcGAkFOIGCXiuSW" name="Page-1">
    <mxGraphModel dx="1191" dy="1939" grid="0" gridSize="10" guides="1" tooltips="1" connect="1" arrows="1" fold="1" page="1" pageScale="1" pageWidth="827" pageHeight="1169" math="0" shadow="0">
      <root>
        <mxCell id="0" />
        <mxCell id="1" parent="0" />
        <mxCell id="HqvWkcDixMvHnZ1-jMWS-3" value="" style="edgeStyle=orthogonalEdgeStyle;rounded=0;orthogonalLoop=1;jettySize=auto;html=1;fontColor=default;labelBackgroundColor=none;" parent="1" source="HqvWkcDixMvHnZ1-jMWS-1" target="HqvWkcDixMvHnZ1-jMWS-2" edge="1">
          <mxGeometry relative="1" as="geometry" />
        </mxCell>
        <mxCell id="cn9sds8N5PX_h7D6BUcy-20" value="朋友" style="edgeLabel;html=1;align=center;verticalAlign=middle;resizable=0;points=[];" vertex="1" connectable="0" parent="HqvWkcDixMvHnZ1-jMWS-3">
          <mxGeometry x="-0.155" relative="1" as="geometry">
            <mxPoint as="offset" />
          </mxGeometry>
        </mxCell>
        <mxCell id="HqvWkcDixMvHnZ1-jMWS-1" value="&lt;span style=&quot;font-family: &amp;quot;helvetica neue&amp;quot;, helvetica, arial, &amp;quot;pingfang sc&amp;quot;, &amp;quot;hiragino sans gb&amp;quot;, &amp;quot;microsoft yahei&amp;quot;, &amp;quot;wenquanyi micro hei&amp;quot;, sans-serif; text-align: -webkit-left;&quot;&gt;赫尔克里·波洛&lt;br&gt;比利时名侦探&lt;br&gt;&lt;/span&gt;" style="rounded=1;whiteSpace=wrap;html=1;sketch=0;labelBackgroundColor=none;fillColor=#dae8fc;strokeColor=#6c8ebf;" parent="1" vertex="1">
          <mxGeometry x="129" y="378.5" width="111" height="56" as="geometry" />
        </mxCell>
        <mxCell id="HqvWkcDixMvHnZ1-jMWS-2" value="&lt;span style=&quot;font-family: &amp;quot;helvetica neue&amp;quot;, helvetica, arial, &amp;quot;pingfang sc&amp;quot;, &amp;quot;hiragino sans gb&amp;quot;, &amp;quot;microsoft yahei&amp;quot;, &amp;quot;wenquanyi micro hei&amp;quot;, sans-serif; text-align: -webkit-left;&quot;&gt;布克先生&lt;br&gt;&lt;/span&gt;&lt;span style=&quot;font-family: &amp;quot;helvetica neue&amp;quot;, helvetica, arial, &amp;quot;pingfang sc&amp;quot;, &amp;quot;hiragino sans gb&amp;quot;, &amp;quot;microsoft yahei&amp;quot;, &amp;quot;wenquanyi micro hei&amp;quot;, sans-serif; text-align: -webkit-left;&quot;&gt;国际客车公司董事&lt;/span&gt;&lt;span style=&quot;font-family: &amp;quot;helvetica neue&amp;quot;, helvetica, arial, &amp;quot;pingfang sc&amp;quot;, &amp;quot;hiragino sans gb&amp;quot;, &amp;quot;microsoft yahei&amp;quot;, &amp;quot;wenquanyi micro hei&amp;quot;, sans-serif; text-align: -webkit-left;&quot;&gt;&lt;br&gt;&lt;/span&gt;" style="rounded=1;whiteSpace=wrap;html=1;sketch=1;fontColor=default;labelBackgroundColor=none;" parent="1" vertex="1">
          <mxGeometry x="129" y="513" width="111" height="56" as="geometry" />
        </mxCell>
        <mxCell id="HqvWkcDixMvHnZ1-jMWS-5" value="&lt;span style=&quot;font-family: &amp;quot;helvetica neue&amp;quot;, helvetica, arial, &amp;quot;pingfang sc&amp;quot;, &amp;quot;hiragino sans gb&amp;quot;, &amp;quot;microsoft yahei&amp;quot;, &amp;quot;wenquanyi micro hei&amp;quot;, sans-serif; text-align: -webkit-left;&quot;&gt;约翰·阿巴思诺特&lt;br&gt;上校&lt;/span&gt;&lt;span style=&quot;font-family: &amp;quot;helvetica neue&amp;quot;, helvetica, arial, &amp;quot;pingfang sc&amp;quot;, &amp;quot;hiragino sans gb&amp;quot;, &amp;quot;microsoft yahei&amp;quot;, &amp;quot;wenquanyi micro hei&amp;quot;, sans-serif; text-align: -webkit-left;&quot;&gt;军官&lt;/span&gt;&lt;span style=&quot;font-family: &amp;quot;helvetica neue&amp;quot;, helvetica, arial, &amp;quot;pingfang sc&amp;quot;, &amp;quot;hiragino sans gb&amp;quot;, &amp;quot;microsoft yahei&amp;quot;, &amp;quot;wenquanyi micro hei&amp;quot;, sans-serif; text-align: -webkit-left;&quot;&gt;&lt;br&gt;&lt;/span&gt;" style="rounded=1;whiteSpace=wrap;html=1;sketch=1;fontColor=default;labelBackgroundColor=none;" parent="1" vertex="1">
          <mxGeometry x="158" y="132" width="108" height="51" as="geometry" />
        </mxCell>
        <mxCell id="HqvWkcDixMvHnZ1-jMWS-6" value="&lt;span style=&quot;font-family: &amp;quot;helvetica neue&amp;quot;, helvetica, arial, &amp;quot;pingfang sc&amp;quot;, &amp;quot;hiragino sans gb&amp;quot;, &amp;quot;microsoft yahei&amp;quot;, &amp;quot;wenquanyi micro hei&amp;quot;, sans-serif; text-align: -webkit-left;&quot;&gt;卡罗琳·玛萨·哈巴特&lt;br&gt;&lt;/span&gt;&lt;span style=&quot;font-family: &amp;quot;helvetica neue&amp;quot;, helvetica, arial, &amp;quot;pingfang sc&amp;quot;, &amp;quot;hiragino sans gb&amp;quot;, &amp;quot;microsoft yahei&amp;quot;, &amp;quot;wenquanyi micro hei&amp;quot;, sans-serif; text-align: -webkit-left;&quot;&gt;美国夫人&lt;/span&gt;&lt;span style=&quot;font-family: &amp;quot;helvetica neue&amp;quot;, helvetica, arial, &amp;quot;pingfang sc&amp;quot;, &amp;quot;hiragino sans gb&amp;quot;, &amp;quot;microsoft yahei&amp;quot;, &amp;quot;wenquanyi micro hei&amp;quot;, sans-serif; text-align: -webkit-left;&quot;&gt;&lt;br&gt;&lt;/span&gt;" style="rounded=1;whiteSpace=wrap;html=1;sketch=1;fontColor=default;labelBackgroundColor=none;" parent="1" vertex="1">
          <mxGeometry x="702" y="127" width="111" height="56" as="geometry" />
        </mxCell>
        <mxCell id="HqvWkcDixMvHnZ1-jMWS-7" value="&lt;span style=&quot;font-family: &amp;quot;helvetica neue&amp;quot;, helvetica, arial, &amp;quot;pingfang sc&amp;quot;, &amp;quot;hiragino sans gb&amp;quot;, &amp;quot;microsoft yahei&amp;quot;, &amp;quot;wenquanyi micro hei&amp;quot;, sans-serif; text-align: -webkit-left;&quot;&gt;玛丽·德贝纳姆&lt;br&gt;&lt;/span&gt;&lt;span style=&quot;font-family: &amp;quot;helvetica neue&amp;quot;, helvetica, arial, &amp;quot;pingfang sc&amp;quot;, &amp;quot;hiragino sans gb&amp;quot;, &amp;quot;microsoft yahei&amp;quot;, &amp;quot;wenquanyi micro hei&amp;quot;, sans-serif; text-align: -webkit-left;&quot;&gt;英国女教师&lt;br&gt;&lt;/span&gt;" style="rounded=1;whiteSpace=wrap;html=1;sketch=1;fontColor=default;labelBackgroundColor=none;" parent="1" vertex="1">
          <mxGeometry x="343" y="132" width="111" height="56" as="geometry" />
        </mxCell>
        <mxCell id="cn9sds8N5PX_h7D6BUcy-15" value="" style="edgeStyle=orthogonalEdgeStyle;rounded=0;orthogonalLoop=1;jettySize=auto;html=1;" edge="1" parent="1" source="HqvWkcDixMvHnZ1-jMWS-8" target="cn9sds8N5PX_h7D6BUcy-3">
          <mxGeometry relative="1" as="geometry" />
        </mxCell>
        <mxCell id="cn9sds8N5PX_h7D6BUcy-16" value="仆人" style="edgeLabel;html=1;align=center;verticalAlign=middle;resizable=0;points=[];" vertex="1" connectable="0" parent="cn9sds8N5PX_h7D6BUcy-15">
          <mxGeometry x="-0.0534" y="-1" relative="1" as="geometry">
            <mxPoint as="offset" />
          </mxGeometry>
        </mxCell>
        <mxCell id="cn9sds8N5PX_h7D6BUcy-17" value="" style="edgeStyle=orthogonalEdgeStyle;rounded=0;orthogonalLoop=1;jettySize=auto;html=1;" edge="1" parent="1" source="HqvWkcDixMvHnZ1-jMWS-8" target="HqvWkcDixMvHnZ1-jMWS-1">
          <mxGeometry relative="1" as="geometry" />
        </mxCell>
        <mxCell id="cn9sds8N5PX_h7D6BUcy-18" value="曾拜托保护自己" style="edgeLabel;html=1;align=center;verticalAlign=middle;resizable=0;points=[];" vertex="1" connectable="0" parent="cn9sds8N5PX_h7D6BUcy-17">
          <mxGeometry x="0.0173" relative="1" as="geometry">
            <mxPoint as="offset" />
          </mxGeometry>
        </mxCell>
        <mxCell id="HqvWkcDixMvHnZ1-jMWS-8" value="&lt;span style=&quot;background-color: rgb(255 , 255 , 255)&quot;&gt;&lt;font color=&quot;#333333&quot; face=&quot;helvetica neue, helvetica, arial, pingfang sc, hiragino sans gb, microsoft yahei, wenquanyi micro hei, sans-serif&quot;&gt;&lt;div&gt;赛缪尔·爱德华·雷切特&lt;/div&gt;&lt;div&gt;真名卡塞蒂&lt;/div&gt;&lt;div&gt;绑架案主谋(死者)&lt;/div&gt;&lt;/font&gt;&lt;/span&gt;" style="rounded=1;whiteSpace=wrap;html=1;sketch=0;fillColor=#f8cecc;strokeColor=#b85450;align=center;" parent="1" vertex="1">
          <mxGeometry x="364" y="377" width="126" height="59" as="geometry" />
        </mxCell>
        <mxCell id="cn9sds8N5PX_h7D6BUcy-1" value="&lt;span style=&quot;font-family: &amp;#34;helvetica neue&amp;#34; , &amp;#34;helvetica&amp;#34; , &amp;#34;arial&amp;#34; , &amp;#34;pingfang sc&amp;#34; , &amp;#34;hiragino sans gb&amp;#34; , &amp;#34;microsoft yahei&amp;#34; , &amp;#34;wenquanyi micro hei&amp;#34; , sans-serif ; text-align: -webkit-left&quot;&gt;德拉戈米罗夫公主&lt;br&gt;&lt;/span&gt;" style="rounded=1;whiteSpace=wrap;html=1;sketch=1;fontColor=default;labelBackgroundColor=none;" vertex="1" parent="1">
          <mxGeometry x="538" y="132" width="111" height="56" as="geometry" />
        </mxCell>
        <mxCell id="cn9sds8N5PX_h7D6BUcy-13" value="" style="edgeStyle=orthogonalEdgeStyle;rounded=0;orthogonalLoop=1;jettySize=auto;html=1;" edge="1" parent="1" source="cn9sds8N5PX_h7D6BUcy-2" target="HqvWkcDixMvHnZ1-jMWS-8">
          <mxGeometry relative="1" as="geometry" />
        </mxCell>
        <mxCell id="cn9sds8N5PX_h7D6BUcy-14" value="老板" style="edgeLabel;html=1;align=center;verticalAlign=middle;resizable=0;points=[];" vertex="1" connectable="0" parent="cn9sds8N5PX_h7D6BUcy-13">
          <mxGeometry x="-0.072" relative="1" as="geometry">
            <mxPoint as="offset" />
          </mxGeometry>
        </mxCell>
        <mxCell id="cn9sds8N5PX_h7D6BUcy-2" value="&lt;span style=&quot;font-family: &amp;#34;helvetica neue&amp;#34; , &amp;#34;helvetica&amp;#34; , &amp;#34;arial&amp;#34; , &amp;#34;pingfang sc&amp;#34; , &amp;#34;hiragino sans gb&amp;#34; , &amp;#34;microsoft yahei&amp;#34; , &amp;#34;wenquanyi micro hei&amp;#34; , sans-serif ; text-align: -webkit-left&quot;&gt;赫克托·威拉德·麦奎因&lt;br&gt;美国人(秘书)&lt;br&gt;&lt;/span&gt;" style="rounded=1;whiteSpace=wrap;html=1;sketch=1;fontColor=default;labelBackgroundColor=none;" vertex="1" parent="1">
          <mxGeometry x="367.5" y="521" width="122.5" height="56" as="geometry" />
        </mxCell>
        <mxCell id="cn9sds8N5PX_h7D6BUcy-3" value="&lt;span style=&quot;font-family: &amp;#34;helvetica neue&amp;#34; , &amp;#34;helvetica&amp;#34; , &amp;#34;arial&amp;#34; , &amp;#34;pingfang sc&amp;#34; , &amp;#34;hiragino sans gb&amp;#34; , &amp;#34;microsoft yahei&amp;#34; , &amp;#34;wenquanyi micro hei&amp;#34; , sans-serif ; text-align: -webkit-left&quot;&gt;马斯特曼&lt;br&gt;英国人&lt;br&gt;&lt;/span&gt;" style="rounded=1;whiteSpace=wrap;html=1;sketch=1;fontColor=default;labelBackgroundColor=none;" vertex="1" parent="1">
          <mxGeometry x="371.5" y="255" width="111" height="56" as="geometry" />
        </mxCell>
        <mxCell id="cn9sds8N5PX_h7D6BUcy-6" value="辛普朗东方快车" style="rounded=1;whiteSpace=wrap;html=1;sketch=0;" vertex="1" parent="1">
          <mxGeometry x="27" y="-39" width="120" height="60" as="geometry" />
        </mxCell>
        <mxCell id="cn9sds8N5PX_h7D6BUcy-7" value="" style="endArrow=classic;html=1;rounded=0;" edge="1" parent="1">
          <mxGeometry width="50" height="50" relative="1" as="geometry">
            <mxPoint x="46" y="71" as="sourcePoint" />
            <mxPoint x="747" y="61.41039671682597" as="targetPoint" />
          </mxGeometry>
        </mxCell>
        <mxCell id="cn9sds8N5PX_h7D6BUcy-9" value="晚8:45&lt;br&gt;贝尔格莱德" style="text;html=1;strokeColor=none;fillColor=none;align=center;verticalAlign=middle;whiteSpace=wrap;rounded=0;sketch=0;" vertex="1" parent="1">
          <mxGeometry x="209" y="21" width="71" height="30" as="geometry" />
        </mxCell>
        <mxCell id="cn9sds8N5PX_h7D6BUcy-10" value="&lt;span style=&quot;font-family: &amp;#34;helvetica neue&amp;#34; , &amp;#34;helvetica&amp;#34; , &amp;#34;arial&amp;#34; , &amp;#34;pingfang sc&amp;#34; , &amp;#34;hiragino sans gb&amp;#34; , &amp;#34;microsoft yahei&amp;#34; , &amp;#34;wenquanyi micro hei&amp;#34; , sans-serif ; text-align: -webkit-left&quot;&gt;康斯坦汀&lt;br&gt;希腊医生&lt;br&gt;&lt;/span&gt;" style="rounded=1;whiteSpace=wrap;html=1;sketch=1;fontColor=default;labelBackgroundColor=none;" vertex="1" parent="1">
          <mxGeometry x="597" y="384" width="111" height="56" as="geometry" />
        </mxCell>
        <mxCell id="cn9sds8N5PX_h7D6BUcy-11" value="&lt;span style=&quot;font-family: &amp;#34;helvetica neue&amp;#34; , &amp;#34;helvetica&amp;#34; , &amp;#34;arial&amp;#34; , &amp;#34;pingfang sc&amp;#34; , &amp;#34;hiragino sans gb&amp;#34; , &amp;#34;microsoft yahei&amp;#34; , &amp;#34;wenquanyi micro hei&amp;#34; , sans-serif ; text-align: -webkit-left&quot;&gt;米歇尔&lt;br&gt;列车员&lt;br&gt;&lt;/span&gt;" style="rounded=1;whiteSpace=wrap;html=1;sketch=1;fontColor=default;labelBackgroundColor=none;" vertex="1" parent="1">
          <mxGeometry x="129" y="623" width="111" height="56" as="geometry" />
        </mxCell>
        <mxCell id="cn9sds8N5PX_h7D6BUcy-21" value="斯坦布尔 - 加来车厢" style="rounded=1;whiteSpace=wrap;html=1;sketch=0;" vertex="1" parent="1">
          <mxGeometry x="171" y="-39" width="124" height="60" as="geometry" />
        </mxCell>
      </root>
    </mxGraphModel>
  </diagram>
</mxfile>
